<svg xmlns="http://www.w3.org/2000/svg" width="1200" height="630" viewBox="0 0 1200 630">
  <defs>
    <linearGradient id="bg" x1="0" y1="0" x2="0" y2="1"><stop offset="0" stop-color="#171b24"/><stop offset="1" stop-color="#0d1016"/></linearGradient>
    <filter id="shadow" x="-20%" y="-20%" width="140%" height="140%"><feDropShadow dx="0" dy="8" stdDeviation="8" flood-color="#000" flood-opacity="0.55"/></filter>
  </defs>
  <rect width="1200" height="630" fill="url(#bg)"/>
  <g opacity="0.10" stroke="#fff" stroke-width="3">
    <path d="M-100 0 L530 630"/><path d="M20 0 L650 630"/><path d="M140 0 L770 630"/><path d="M260 0 L890 630"/><path d="M380 0 L1010 630"/><path d="M500 0 L1130 630"/><path d="M620 0 L1250 630"/>
  </g>
  <text x="600" y="88" fill="#f4f7fb" text-anchor="middle" font-size="54" font-weight="900" font-family="system-ui,-apple-system,BlinkMacSystemFont,'Segoe UI',sans-serif">色を揃えるげーむ</text>
  <g fill="none" stroke="#05070a" stroke-width="54" filter="url(#shadow)">
    <ellipse cx="330" cy="340" rx="205" ry="230"/>
    <ellipse cx="870" cy="340" rx="205" ry="230"/>
    <path d="M510 250 L510 430" stroke-linecap="round"/>
    <path d="M690 250 L690 430" stroke-linecap="round"/>
  </g>
  <g fill="none" stroke="#5f7e8d" stroke-width="10">
    <ellipse cx="330" cy="340" rx="205" ry="230"/>
    <ellipse cx="870" cy="340" rx="205" ry="230"/>
    <path d="M510 250 L510 430" stroke-linecap="round"/>
    <path d="M690 250 L690 430" stroke-linecap="round"/>
  </g>
  <g fill="#ff7a3d" stroke="#0b0d12" stroke-width="7" filter="url(#shadow)">
    <circle cx="330" cy="110" r="28"/><circle cx="430" cy="140" r="28"/><circle cx="505" cy="215" r="28"/><circle cx="535" cy="315" r="28"/><circle cx="505" cy="425" r="28"/><circle cx="430" cy="510" r="28"/><circle cx="330" cy="570" r="28"/><circle cx="230" cy="510" r="28"/><circle cx="155" cy="425" r="28"/><circle cx="125" cy="315" r="28"/><circle cx="155" cy="215" r="28"/><circle cx="230" cy="140" r="28"/><circle cx="510" cy="250" r="28"/><circle cx="510" cy="310" r="28"/><circle cx="510" cy="370" r="28"/><circle cx="510" cy="430" r="28"/>
  </g>
  <g fill="#35aaff" stroke="#0b0d12" stroke-width="7" filter="url(#shadow)">
    <circle cx="870" cy="110" r="28"/><circle cx="970" cy="140" r="28"/><circle cx="1045" cy="215" r="28"/><circle cx="1075" cy="315" r="28"/><circle cx="1045" cy="425" r="28"/><circle cx="970" cy="510" r="28"/><circle cx="870" cy="570" r="28"/><circle cx="770" cy="510" r="28"/><circle cx="695" cy="425" r="28"/><circle cx="665" cy="315" r="28"/><circle cx="695" cy="215" r="28"/><circle cx="770" cy="140" r="28"/><circle cx="690" cy="250" r="28"/><circle cx="690" cy="310" r="28"/><circle cx="690" cy="370" r="28"/><circle cx="690" cy="430" r="28"/>
  </g>
  <g fill="#fff" opacity="0.28">
    <circle cx="320" cy="100" r="8"/><circle cx="860" cy="100" r="8"/><circle cx="500" cy="240" r="8"/><circle cx="680" cy="240" r="8"/>
  </g>
</svg>
